<?xml version="1.0" encoding="utf-8"?>
<!-- Svg Vector Icons : http://www.onlinewebfonts.com/icon -->
<!DOCTYPE svg PUBLIC "-//W3C//DTD SVG 1.1//EN" "http://www.w3.org/Graphics/SVG/1.1/DTD/svg11.dtd">
<svg version="1.1" xmlns="http://www.w3.org/2000/svg" xmlns:xlink="http://www.w3.org/1999/xlink" x="0px" y="0px" viewBox="0 0 1000 1000" enable-background="new 0 0 1000 1000" xml:space="preserve">
<metadata> Svg Vector Icons : http://www.onlinewebfonts.com/icon </metadata>
<g><g transform="translate(0.000000,511.000000) scale(0.100000,-0.100000)"><path d="M4922.2,5025c-21.3-9.7-182.4-139.7-359-287.2c-176.6-149.4-1232.2-1036.2-2348-1971.6C1099.4,1828.9,167.9,1035.3,144.6,1002.3c-25.2-33-44.6-81.5-44.6-106.7c0-124.2,128.1-230.9,248.4-207.6c34.9,7.8,250.3,176.6,574.4,448.3c285.3,240.6,525.9,428.8,533.6,421.1c7.8-9.7,147.5-1414.6,308.5-3122.3c318.3-3355.2,293-3165,413.3-3225.2c36.9-19.4,657.8-25.2,2821.5-25.2c2738.1,0,2774.9,0,2839,38.8c34.9,21.3,71.8,58.2,81.5,81.5c11.6,25.2,151.4,1428.2,310.5,3120.4c159.1,1692.1,293,3095.1,295,3120.3c5.8,38.8,75.7-13.6,537.5-401.7c308.5-260,555-452.1,586-458c81.5-17.5,182.4,36.9,223.2,122.3c69.9,149.4,199.9,31-2357.7,2181.1C6230.1,4070.2,5158.9,4970.6,5133.7,4990C5079.4,5030.8,4976.5,5048.2,4922.2,5025z M6573.6,3237.7C8096.9,1957,8143.4,1914.3,8137.6,1854.2c-2-34.9-135.8-1443.8-295-3132c-161.1-1688.2-291.1-3077.6-291.1-3089.3c0-15.5-725.8-21.3-2549.8-21.3H2450l-11.6,102.8c-5.8,54.4-137.8,1438-291.1,3069.9C1993.9,418.2,1862,1788.2,1856.2,1832.8l-11.6,77.6l1573.8,1323.4c865.5,727.7,1577.6,1323.4,1579.6,1323.4C5001.7,4557.3,5710,3963.5,6573.6,3237.7z"/><path d="M4790.2,2267.5c-409.4-50.5-842.2-287.2-1125.5-617.1C3168,1077.9,3084.5,305.6,3449.3-346.4c217.3-392,632.6-725.7,1061.5-857.7c937.3-287.2,1950.2,312.4,2218,1309.8c50.5,186.3,50.5,605.4,0,791.7c-112.5,421.1-376.4,803.4-723.8,1051.8C5667.3,2191.8,5190,2317.9,4790.2,2267.5z M5351,1821.2c250.3-64,421.1-159.1,611.3-349.3c277.5-275.6,393.9-562.7,393.9-970.3s-116.4-694.7-393.9-970.3c-271.7-267.8-566.6-388.1-962.5-388.1c-539.5,0-999.4,273.6-1218.6,725.7c-108.7,219.3-137.8,355.1-137.8,632.6s29.1,413.3,137.8,632.6c164.9,341.5,469.6,584.1,859.6,685C4840.7,1871.6,5145.3,1873.6,5351,1821.2z"/><path d="M4846.5-1906.6c-217.3-54.3-442.4-242.6-549.2-459.9c-48.5-97-54.3-131.9-54.3-294.9c0-164.9,5.8-197.9,56.3-300.8c112.6-227.1,359-417.2,595.7-454.1c312.4-50.4,650.1,141.7,799.5,457.9c54.3,116.4,62.1,151.4,62.1,298.8c0,151.4-5.8,176.6-73.7,312.4C5523.7-2023,5155-1829,4846.5-1906.6z M5217.1-2362.6c95.1-69.9,132-157.2,130-302.7c0-166.9-60.2-267.8-190.2-316.3c-120.3-46.6-293-33-378.4,29.1c-201.8,141.6-172.7,514.2,46.6,613.2C4914.4-2296.6,5149.2-2312.1,5217.1-2362.6z"/></g></g>
</svg>