<?xml version="1.0" ?><svg style="enable-background:new 0 0 48 48;" version="1.1" viewBox="0 0 48 48" xml:space="preserve" xmlns="http://www.w3.org/2000/svg" xmlns:xlink="http://www.w3.org/1999/xlink"><g id="Padding__x26__Artboard"/><g id="Icons"><g><path d="M39.23108,26.31841c-0.20068-0.3418-0.55615-0.5459-0.95068-0.5459h-2.70947v-8.43555    c0-3.08008-2.50586-5.58496-5.58594-5.58496H19.59045c-0.00592,0-0.0108,0.00305-0.01666,0.00336    c-0.02527,0.00116-0.04938,0.00806-0.07434,0.01495c-0.02136,0.00586-0.0423,0.01056-0.06183,0.0202    c-0.00635,0.00311-0.01331,0.00287-0.01953,0.00641c-0.01404,0.00793-0.02258,0.02087-0.0351,0.0304    c-0.01892,0.01428-0.03705,0.02777-0.05267,0.04553c-0.01514,0.01721-0.02606,0.03589-0.03741,0.05548    c-0.01129,0.01923-0.02197,0.03766-0.02942,0.05896c-0.008,0.02283-0.01099,0.04584-0.01416,0.06989    c-0.00201,0.0152-0.00897,0.02869-0.00897,0.04443c0,0.0069,0.00354,0.0127,0.00391,0.01947    c0.00122,0.02271,0.00769,0.04419,0.01349,0.06659c0.00616,0.02368,0.01147,0.04663,0.02222,0.06799    c0.00287,0.0058,0.00256,0.01215,0.0058,0.01782l1.92822,3.40918c0.00476,0.00842,0.01404,0.0116,0.01935,0.01947    c0.02484,0.0368,0.05505,0.06726,0.0918,0.09229c0.01239,0.00842,0.02271,0.01752,0.03601,0.02423    c0.04791,0.02454,0.09998,0.04175,0.15753,0.04175h8.46631c0.80713,0,1.46338,0.66211,1.46338,1.47656l0.00562,8.43555H28.7882    c-0.40234,0-0.76123,0.20898-0.96045,0.55859c-0.19775,0.34766-0.19385,0.76074,0.0083,1.10156l4.74658,8.22168    c0.19189,0.34863,0.54346,0.56055,0.93994,0.56543c0.00488,0,0.00977,0,0.01465,0c0.39844,0,0.75732-0.20801,0.96289-0.56055    l4.74365-8.23047C39.43908,27.07915,39.4342,26.66411,39.23108,26.31841z" style="fill:#303030;"/><path d="M28.71447,35.69829l-1.92822-3.41016c-0.08765-0.15466-0.27203-0.21143-0.43237-0.14746h-8.33911    c-0.80664,0-1.46289-0.66308-1.46289-1.47656v-8.46484h2.65967c0.40234,0,0.76123-0.20801,0.96045-0.55859    c0.19824-0.34766,0.19434-0.76074-0.00781-1.10254l-4.74658-8.22168c-0.19238-0.34863-0.54395-0.55957-0.94043-0.56445    c-0.41113-0.02637-0.76904,0.20312-0.97705,0.55957l-4.74365,8.23047c-0.19531,0.34961-0.19092,0.76562,0.01221,1.11133    c0.20068,0.3418,0.55615,0.5459,0.95117,0.5459h2.70947v8.46484c0,3.08008,2.50586,5.58594,5.58545,5.58594h10.39502    c0.19336,0,0.3501-0.15625,0.3501-0.34961c0-0.00995-0.00488-0.01825-0.00568-0.02795    C28.75476,35.81322,28.74578,35.75353,28.71447,35.69829z" style="fill:#303030;"/></g></g></svg>