<?xml version="1.0" encoding="utf-8"?>
<svg viewBox="0 0 512 512" xmlns="http://www.w3.org/2000/svg">
  <g>
    <path d="M 2.6 446.3 C 20.888 448.039 38.502 447.745 55.513 445.4 C 55.91 445.738 56.293 446.111 56.646 446.536 C 59.504 449.982 62.718 459.503 65.841 460.902 C 68.016 461.877 71.716 460.792 72.449 458.891 C 73.474 456.234 69.133 446.982 66.805 443.525 C 83.47 440.279 99.553 434.996 115.122 427.656 C 116.35 428.021 117.563 428.376 118.707 428.723 C 125.933 430.918 140.18 435.51 143.991 433.895 C 146.167 432.972 146.381 429.338 146.002 427.861 C 145.685 426.624 145.07 426.247 142.842 425.275 C 140.677 424.331 135.117 422.424 128.864 420.57 C 137.945 415.478 146.853 409.656 155.6 403.1 C 143.7 402.2 133.3 400.6 123.3 397 C 97.1 387.5 77.5 370.6 64.8 345.8 C 63 342.3 61.5 338.5 59.8 334.9 C 58 331.1 59.8 330.6 63.1 331.1 C 67.131 331.751 71.152 332.114 75.163 332.227 C 78.511 338.521 87.753 352.267 91.699 354.02 C 94.113 355.093 96.792 353.251 97.733 352.009 C 98.559 350.918 98.445 349.524 97.733 347.412 C 96.59 344.021 91.417 336.315 88.038 331.777 C 92.638 331.341 97.225 330.629 101.8 329.7 C 102.1 329.6 102.3 329.3 102.6 329.1 C 102.8 327.7 101.7 327.5 100.8 327.3 C 71.8 320.1 50.1 303.1 35.2 277.5 C 26.8 263 22.4 247.3 21.9 230.5 C 21.8 226.2 23 225.7 26.6 227.4 C 30.735 229.403 34.944 231.156 39.266 232.627 C 39.534 235.086 39.895 237.508 40.269 239.38 C 41.189 243.982 42.349 250.425 44.579 251.735 C 46.306 252.749 50.066 252.066 51.187 249.724 C 52.172 247.668 51.862 241.741 50.954 235.837 C 56.491 236.998 62.249 237.704 68.3 237.9 C 60.8 232 54.1 226.6 48.5 220 C 28 195.9 19.5 168.2 23.6 136.7 C 25.1 125 28.8 114.1 33.9 103.5 C 35.8 99.6 37.2 99.1 40.1 102.6 C 52.087 117.171 65.517 130.197 80.093 141.935 C 81.128 149.973 85.434 166.673 87.389 172.148 C 88.673 175.743 89.407 178.067 91.125 178.756 C 92.725 179.399 96.258 179.197 97.158 176.745 C 98.306 173.619 96.214 161.925 93.54 152.178 C 94.951 153.196 96.371 154.203 97.8 155.2 C 113.9 166.5 131.1 175.9 149.1 183.8 C 152.461 185.257 155.842 186.647 159.243 187.971 C 163.77 198.208 169.444 211.827 172.723 213.809 C 175.048 215.215 177.985 213.787 178.756 211.798 C 179.937 208.756 176.075 199.538 173.343 193.051 C 189.102 198.28 205.249 202.168 221.7 204.8 C 230.1 206.1 238.6 206.4 247 207.4 C 250.9 207.8 251.5 206.3 250.8 202.8 C 246.6 181 249.4 159.9 258.9 140 C 273.8 109 298.1 89.2 332 82 C 365.5 74.9 395.2 83.3 421.6 104.6 C 430.1 117.4 440.8 109.9 450.5 107.2 C 465.9 102.9 480.4 96.2 494.8 88.7 C 487.5 112 473.1 129.9 453 143.8 C 472.4 142.5 490.5 136.5 509.7 128.9 C 504.6 137 499.3 143.3 494.1 149.6 C 484.4 161.2 473.2 171 461.3 180.1 C 458.8 182 458.1 183.9 458.2 186.8 C 458.8 207.8 457.1 228.7 453.3 249.4 C 449.3 271.1 442.9 292 434.4 312.3 C 424.9 334.9 412.9 356.3 398.3 376 C 380.1 400.6 358.6 422.1 333.6 439.9 C 299.9 463.9 262.6 479.5 222 487.3 C 196.6 492.2 170.9 493.7 145 492.4 C 124.9 491.4 105.3 488.3 86 483.3 C 61.8 477 38.6 467.8 16.9 455.4 C 12.3 452.7 7.2 450.9 2.6 446.3 Z M 346.73 127.793 C 344.005 130.502 342.376 134.962 341.558 138.424 C 340.817 141.555 340.922 144.606 341.558 147.618 C 342.216 150.739 343.882 154.297 345.58 156.813 C 347.11 159.078 348.849 160.893 351.039 162.272 C 353.32 163.707 355.84 164.947 359.084 165.145 C 363.171 165.393 370.245 164.403 374.025 162.272 C 377.345 160.4 379.625 156.83 381.208 153.939 C 382.626 151.349 383.256 148.897 383.506 145.895 C 383.791 142.479 383.383 137.56 382.357 134.402 C 381.483 131.711 380.147 129.639 378.334 127.793 C 376.45 125.875 374.098 124.174 371.152 123.196 C 367.697 122.05 362.556 121.3 358.51 122.047 C 354.411 122.803 349.569 124.971 346.73 127.793 Z M 353.446 103.192 C 356.868 108.074 390.733 122.07 396.256 120.718 C 398.837 120.087 399.547 116.412 398.267 114.11 C 396.039 110.102 380.231 104.076 373.845 101.181 C 369.327 99.132 366.204 97.769 362.927 97.158 C 360.183 96.646 357.031 96.051 355.457 97.158 C 353.981 98.196 351.898 100.984 353.446 103.192 Z" fill="#58AEE7"/>
  </g>
</svg>